<svg id="Ebene_1" data-name="Ebene 1" xmlns="http://www.w3.org/2000/svg" viewBox="0 0 131.76 35.04"><defs><style>.cls-1,.cls-2{fill:#fff;}.cls-1{fill-rule:evenodd;}</style></defs><title>FINALE VOLIX_white_converted</title><path class="cls-1" d="M260.15,390.06H257.9l-7.09,17a12.22,12.22,0,0,0-.65,2.14h-.06a18.8,18.8,0,0,0-.72-2.23l-6.82-16.9h-2.32l8.88,21.24H251Z" transform="translate(-240.24 -378.48)"/><rect class="cls-2" x="76.76" width="2.06" height="32.82"/><path class="cls-1" d="M338.38,411.3V390.06h-2.06V411.3Zm.16-27.6a2.18,2.18,0,0,0,.52-1.42,2,2,0,0,0-.52-1.36,1.74,1.74,0,0,0-1.21-.51,1.65,1.65,0,0,0-1.2.54,1.79,1.79,0,0,0-.53,1.33,2,2,0,0,0,.53,1.45,1.58,1.58,0,0,0,1.2.54A1.52,1.52,0,0,0,338.54,383.7Z" transform="translate(-240.24 -378.48)"/><path class="cls-1" d="M372,390.06h-2.42l-5.35,7.7-1.14,1.75H363c-.13-.24-.52-.85-1.17-1.84l-5.13-7.61h-2.41l7.54,10.87-7.67,10.37h2.51l5.06-7.21c.13-.21.26-.39.39-.57l.82-1.18H363l6.07,9h2.61l-7.47-10.4Z" transform="translate(-240.24 -378.48)"/><path class="cls-1" d="M283.86,397.17c-1.91-.72-3.21-1.87-3.41-3.22l-2.5,2.51a.77.77,0,0,0,0,1.1l3.31,3.32v5.29a1.29,1.29,0,0,0,1.29,1.29h2.17a2.19,2.19,0,1,0,0-4.31h-.86Zm2.16,12a1.3,1.3,0,1,0,0,2.59h4.33a1.3,1.3,0,1,0,0-2.59h-1.29v-.87a.88.88,0,0,0-1.75,0v.87Zm12.63-15.34a2.69,2.69,0,0,0,.86-2,2.67,2.67,0,0,0-4.63-1.81Zm-17.16-3.79a2.67,2.67,0,1,0-3.77,3.78Zm-6.29,1.82a4.34,4.34,0,0,1,4.33-4.33,4.29,4.29,0,0,1,3.13,1.34l4.3-4.29a1.73,1.73,0,0,1,2.44,0l4.3,4.29a4.4,4.4,0,0,1,3.14-1.34,4.33,4.33,0,0,1,3,7.47l.83.83a1.73,1.73,0,0,1,0,2.45l-3.81,3.8v4.49a2.59,2.59,0,0,1-2.6,2.6h-1a2.43,2.43,0,0,1,.15.86v.87a2.59,2.59,0,0,1-2.6,2.59h-5.19a2.59,2.59,0,0,1-2.6-2.59v-.87a2.43,2.43,0,0,1,.15-.86h-1a2.59,2.59,0,0,1-2.6-2.6v-4.48l-3.82-3.81a1.73,1.73,0,0,1,0-2.45l.83-.83A4.38,4.38,0,0,1,275.2,391.89ZM295.9,394c-.19,1.33-1.5,2.5-3.39,3.2v6h-.86a2.19,2.19,0,1,0,0,4.31h2.17a1.29,1.29,0,0,0,1.29-1.29v-5.34l3.3-3.27a.77.77,0,0,0,0-1.1Zm-5.12-.33h4.79l-6.83-6.84a.78.78,0,0,0-1.11,0l-6.84,6.84h4.8v5.2a2.6,2.6,0,0,0,5.19,0v-5.2Z" transform="translate(-240.24 -378.48)"/></svg>